<svg width="6" height="11" viewBox="0 0 6 11" fill="none" xmlns="http://www.w3.org/2000/svg">
<path fill-rule="evenodd" clip-rule="evenodd" d="M5.70679 0.799035C5.89426 0.986563 5.99957 1.24087 5.99957 1.50603C5.99957 1.7712 5.89426 2.02551 5.70679 2.21303L2.41379 5.50603L5.70679 8.79904C5.88894 8.98764 5.98974 9.24024 5.98746 9.50244C5.98518 9.76463 5.88001 10.0154 5.6946 10.2009C5.5092 10.3863 5.25838 10.4914 4.99619 10.4937C4.73399 10.496 4.48139 10.3952 4.29279 10.213L0.292787 6.21303C0.105316 6.02551 0 5.7712 0 5.50603C0 5.24087 0.105316 4.98656 0.292787 4.79904L4.29279 0.799035C4.48031 0.611564 4.73462 0.506248 4.99979 0.506248C5.26495 0.506248 5.51926 0.611564 5.70679 0.799035Z" fill="white"/>
</svg>
