<svg width="28" height="27" viewBox="0 0 28 27" fill="none" xmlns="http://www.w3.org/2000/svg">
<path d="M20.7607 20.1163C20.4212 20.4557 20.0253 20.6254 19.5727 20.6254C19.1013 20.6065 18.6959 20.4274 18.3565 20.088L14.1139 15.8453L9.87121 20.088C9.5318 20.4274 9.13582 20.5971 8.68327 20.5971C8.21187 20.5782 7.80646 20.3991 7.46705 20.0597C7.12764 19.7203 6.95793 19.3243 6.95793 18.8718C6.95793 18.4192 7.12764 18.0232 7.46705 17.6838L11.7097 13.4412L7.46705 9.19854C7.12764 8.85913 6.95793 8.46315 6.95793 8.0106C6.95793 7.55805 7.12764 7.16207 7.46705 6.82266C7.80646 6.48325 8.20244 6.31354 8.65499 6.31355C9.10754 6.31355 9.50352 6.48325 9.84293 6.82266L14.0856 11.0653L18.3282 6.82266C18.6676 6.48325 19.073 6.32297 19.5444 6.34183C20.0158 6.32297 20.4118 6.47382 20.7324 6.79438C21.0718 7.13379 21.2415 7.54863 21.2415 8.03889C21.2415 8.49143 21.0718 8.88741 20.7324 9.22683L16.4897 13.4695L20.7324 17.7121C21.0718 18.0515 21.2509 18.4569 21.2698 18.9283C21.2698 19.3809 21.1001 19.7769 20.7607 20.1163Z" fill="white"/>
</svg>
