<svg width="10" height="17" viewBox="0 0 10 17" fill="none" xmlns="http://www.w3.org/2000/svg">
<path fill-rule="evenodd" clip-rule="evenodd" d="M9.51199 0.969045C9.82446 1.26946 10 1.67687 10 2.10166C10 2.52645 9.82446 2.93386 9.51199 3.23428L4.02326 8.50967L9.51199 13.7851C9.81561 14.0872 9.98361 14.4919 9.97981 14.9119C9.97601 15.332 9.80072 15.7338 9.49168 16.0308C9.18265 16.3278 8.7646 16.4963 8.32757 16.4999C7.89055 16.5036 7.46951 16.3421 7.15515 16.0503L0.488012 9.64229C0.175538 9.34187 0 8.93447 0 8.50967C0 8.08488 0.175538 7.67748 0.488012 7.37706L7.15515 0.969045C7.46772 0.668716 7.8916 0.5 8.33357 0.5C8.77554 0.5 9.19942 0.668716 9.51199 0.969045Z" fill="white"/>
</svg>
