<svg width="35" height="33" viewBox="0 0 35 33" fill="none" xmlns="http://www.w3.org/2000/svg">
<path d="M12.642 25.8545H11.9277C6.21386 25.8545 3.35693 24.5254 3.35693 17.88V11.2345C3.35693 5.91818 6.21386 3.26001 11.9277 3.26001H23.3554C29.0693 3.26001 31.9262 5.91818 31.9262 11.2345V17.88C31.9262 23.1963 29.0693 25.8545 23.3554 25.8545H22.6412C22.1984 25.8545 21.7699 26.0539 21.4984 26.3861L19.3557 29.0443C18.413 30.2139 16.8702 30.2139 15.9274 29.0443L13.7847 26.3861C13.5562 26.0937 13.0276 25.8545 12.642 25.8545Z" stroke="white" stroke-width="1.5" stroke-miterlimit="10" stroke-linecap="round" stroke-linejoin="round"/>
<path d="M23.3504 15.2217H23.3633" stroke="white" stroke-width="2" stroke-linecap="round" stroke-linejoin="round"/>
<path d="M17.6351 15.2217H17.6479" stroke="white" stroke-width="2" stroke-linecap="round" stroke-linejoin="round"/>
<path d="M11.9199 15.2217H11.9327" stroke="white" stroke-width="2" stroke-linecap="round" stroke-linejoin="round"/>
</svg>
