<svg width="43" height="43" viewBox="0 0 43 43" fill="none" xmlns="http://www.w3.org/2000/svg">
<path d="M32.1158 32.1554C31.5728 32.6985 30.9392 32.97 30.2151 32.97C29.4609 32.9398 28.8122 32.6532 28.2692 32.1102L21.4809 25.3219L14.6927 32.1102C14.1497 32.6532 13.5161 32.9248 12.792 32.9248C12.0378 32.8946 11.3891 32.608 10.8461 32.0649C10.303 31.5219 10.0315 30.8883 10.0315 30.1642C10.0315 29.4401 10.303 28.8066 10.8461 28.2635L17.6343 21.4753L10.8461 14.6871C10.303 14.144 10.0315 13.5104 10.0315 12.7864C10.0315 12.0623 10.303 11.4287 10.8461 10.8856C11.3891 10.3426 12.0227 10.0711 12.7468 10.0711C13.4708 10.0711 14.1044 10.3426 14.6475 10.8856L21.4357 17.6739L28.2239 10.8856C28.767 10.3426 29.4156 10.0861 30.1699 10.1163C30.9241 10.0861 31.5577 10.3275 32.0706 10.8404C32.6136 11.3835 32.8852 12.0472 32.8852 12.8316C32.8852 13.5557 32.6136 14.1893 32.0706 14.7323L25.2824 21.5205L32.0706 28.3088C32.6136 28.8518 32.9002 29.5005 32.9304 30.2547C32.9304 30.9788 32.6589 31.6124 32.1158 32.1554Z" fill="white"/>
</svg>
