<svg width="35" height="33" viewBox="0 0 35 33" fill="none" xmlns="http://www.w3.org/2000/svg">
<path d="M17.6416 20.4362C20.0084 20.4362 21.927 18.651 21.927 16.4489C21.927 14.2468 20.0084 12.4617 17.6416 12.4617C15.2748 12.4617 13.3562 14.2468 13.3562 16.4489C13.3562 18.651 15.2748 20.4362 17.6416 20.4362Z" stroke="white" stroke-width="1.5" stroke-miterlimit="10" stroke-linecap="round" stroke-linejoin="round"/>
<path d="M3.35693 17.6185V15.2793C3.35693 13.8971 4.57113 12.7541 6.07102 12.7541C8.65654 12.7541 9.7136 11.0528 8.4137 8.96617C7.6709 7.76999 8.11372 6.21496 9.41363 5.52384L11.8849 4.20804C13.0134 3.58337 14.4704 3.95551 15.1418 5.00549L15.2989 5.25802C16.5845 7.34469 18.6986 7.34469 19.9986 5.25802L20.1557 5.00549C20.8271 3.95551 22.2841 3.58337 23.4126 4.20804L25.8838 5.52384C27.1837 6.21496 27.6266 7.76999 26.8838 8.96617C25.5839 11.0528 26.6409 12.7541 29.2264 12.7541C30.712 12.7541 31.9405 13.8838 31.9405 15.2793V17.6185C31.9405 19.0008 30.7263 20.1438 29.2264 20.1438C26.6409 20.1438 25.5839 21.845 26.8838 23.9317C27.6266 25.1412 27.1837 26.6829 25.8838 27.374L23.4126 28.6898C22.2841 29.3145 20.8271 28.9424 20.1557 27.8924L19.9986 27.6399C18.7129 25.5532 16.5988 25.5532 15.2989 27.6399L15.1418 27.8924C14.4704 28.9424 13.0134 29.3145 11.8849 28.6898L9.41363 27.374C8.11372 26.6829 7.6709 25.1279 8.4137 23.9317C9.7136 21.845 8.65654 20.1438 6.07102 20.1438C4.57113 20.1438 3.35693 19.0008 3.35693 17.6185Z" stroke="white" stroke-width="1.5" stroke-miterlimit="10" stroke-linecap="round" stroke-linejoin="round"/>
</svg>
