<svg width="10" height="16" viewBox="0 0 10 16" fill="none" xmlns="http://www.w3.org/2000/svg">
<path fill-rule="evenodd" clip-rule="evenodd" d="M0.488012 15.531C0.175538 15.2305 0 14.8231 0 14.3983C0 13.9735 0.175538 13.5661 0.488012 13.2657L5.97674 7.99033L0.488012 2.71493C0.184394 2.41279 0.0163907 2.00812 0.0201883 1.58808C0.023986 1.16804 0.19928 0.766241 0.508316 0.469216C0.817352 0.172192 1.2354 0.00371059 1.67243 6.05597e-05C2.10945 -0.00358947 2.53049 0.157884 2.84485 0.449702L9.51199 6.85771C9.82446 7.15813 10 7.56553 10 7.99033C10 8.41512 9.82446 8.82252 9.51199 9.12294L2.84485 15.531C2.53228 15.8313 2.1084 16 1.66643 16C1.22446 16 0.800581 15.8313 0.488012 15.531Z" fill="white"/>
</svg>
