<svg width="10" height="16" viewBox="0 0 10 16" fill="none" xmlns="http://www.w3.org/2000/svg">
<path fill-rule="evenodd" clip-rule="evenodd" d="M9.51199 0.469045C9.82446 0.769465 10 1.17687 10 1.60166C10 2.02645 9.82446 2.43386 9.51199 2.73428L4.02326 8.00967L9.51199 13.2851C9.81561 13.5872 9.98361 13.9919 9.97981 14.4119C9.97601 14.832 9.80072 15.2338 9.49168 15.5308C9.18265 15.8278 8.7646 15.9963 8.32757 15.9999C7.89055 16.0036 7.46951 15.8421 7.15515 15.5503L0.488012 9.14229C0.175538 8.84187 -2.87619e-08 8.43447 -2.87619e-08 8.00967C-2.87619e-08 7.58488 0.175538 7.17748 0.488012 6.87706L7.15515 0.469045C7.46772 0.168716 7.8916 3.85206e-07 8.33357 3.85206e-07C8.77554 3.85206e-07 9.19942 0.168716 9.51199 0.469045Z" fill="white"/>
</svg>
